<?xml version="1.0" encoding="UTF-8"?>
<mxfile host="app.diagrams.net" modified="2024-01-01T00:00:00.000Z" agent="MCP-Flowchart-Server" version="1.0.0" etag="test" type="device">
  <diagram name="Flowchart" id="flowchart">
    <mxGraphModel dx="1422" dy="794" grid="1" gridSize="10" guides="1" tooltips="1" connect="1" arrows="1" fold="1" page="1" pageScale="1" pageWidth="300" pageHeight="720" math="0" shadow="0">
      <root>
        <mxCell id="0"/>
        <mxCell id="1" parent="0"/>
        <mxCell id="title" value="Direct File Write Test" style="text;html=1;strokeColor=none;fillColor=none;align=center;verticalAlign=middle;whiteSpace=wrap;rounded=0;" vertex="1" parent="1">
          <mxGeometry x="100" y="10" width="100" height="20" as="geometry"/>
        </mxCell>
        <mxCell id="start" value="Start" style="ellipse;whiteSpace=wrap;html=1;fillColor=#e1f5fe;strokeColor=#01579b;" vertex="1" parent="1">
          <mxGeometry x="-100" y="0" width="200" height="80" as="geometry"/>
        </mxCell>
        <mxCell id="process" value="Process Data" style="rounded=1;whiteSpace=wrap;html=1;fillColor=#f3e5f5;strokeColor=#4a148c;" vertex="1" parent="1">
          <mxGeometry x="-100" y="150" width="200" height="80" as="geometry"/>
        </mxCell>
        <mxCell id="decision" value="Valid?" style="rhombus;whiteSpace=wrap;html=1;fillColor=#fff3e0;strokeColor=#e65100;" vertex="1" parent="1">
          <mxGeometry x="-100" y="300" width="200" height="80" as="geometry"/>
        </mxCell>
        <mxCell id="success" value="Success" style="rounded=1;whiteSpace=wrap;html=1;fillColor=#f3e5f5;strokeColor=#4a148c;" vertex="1" parent="1">
          <mxGeometry x="-260" y="450" width="200" height="80" as="geometry"/>
        </mxCell>
        <mxCell id="error" value="Error" style="rounded=1;whiteSpace=wrap;html=1;fillColor=#f3e5f5;strokeColor=#4a148c;" vertex="1" parent="1">
          <mxGeometry x="60" y="450" width="200" height="80" as="geometry"/>
        </mxCell>
        <mxCell id="end" value="End" style="ellipse;whiteSpace=wrap;html=1;fillColor=#e1f5fe;strokeColor=#01579b;" vertex="1" parent="1">
          <mxGeometry x="-100" y="600" width="200" height="80" as="geometry"/>
        </mxCell>
        <mxCell id="edge_start_process" value="" style="endArrow=classic;html=1;rounded=0;exitX=0.5;exitY=1;exitDx=0;exitDy=0;entryX=0.5;entryY=0;entryDx=0;entryDy=0;" edge="1" parent="1" source="start" target="process">
          <mxGeometry width="50" height="50" relative="1" as="geometry">
            <mxPoint x="0" y="150" as="sourcePoint"/>
            <mxPoint x="0" y="80" as="targetPoint"/>
          </mxGeometry>
        </mxCell>
        <mxCell id="edge_process_decision" value="" style="endArrow=classic;html=1;rounded=0;exitX=0.5;exitY=1;exitDx=0;exitDy=0;entryX=0.5;entryY=0;entryDx=0;entryDy=0;" edge="1" parent="1" source="process" target="decision">
          <mxGeometry width="50" height="50" relative="1" as="geometry">
            <mxPoint x="0" y="300" as="sourcePoint"/>
            <mxPoint x="0" y="230" as="targetPoint"/>
          </mxGeometry>
        </mxCell>
        <mxCell id="edge_decision_success" value="Yes" style="endArrow=classic;html=1;rounded=0;exitX=0.5;exitY=1;exitDx=0;exitDy=0;entryX=0.5;entryY=0;entryDx=0;entryDy=0;" edge="1" parent="1" source="decision" target="success">
          <mxGeometry width="50" height="50" relative="1" as="geometry">
            <mxPoint x="-160" y="450" as="sourcePoint"/>
            <mxPoint x="0" y="380" as="targetPoint"/>
          </mxGeometry>
        </mxCell>
        <mxCell id="edge_decision_error" value="No" style="endArrow=classic;html=1;rounded=0;exitX=0.5;exitY=1;exitDx=0;exitDy=0;entryX=0.5;entryY=0;entryDx=0;entryDy=0;" edge="1" parent="1" source="decision" target="error">
          <mxGeometry width="50" height="50" relative="1" as="geometry">
            <mxPoint x="160" y="450" as="sourcePoint"/>
            <mxPoint x="0" y="380" as="targetPoint"/>
          </mxGeometry>
        </mxCell>
        <mxCell id="edge_success_end" value="" style="endArrow=classic;html=1;rounded=0;exitX=0.5;exitY=1;exitDx=0;exitDy=0;entryX=0.5;entryY=0;entryDx=0;entryDy=0;" edge="1" parent="1" source="success" target="end">
          <mxGeometry width="50" height="50" relative="1" as="geometry">
            <mxPoint x="0" y="600" as="sourcePoint"/>
            <mxPoint x="-160" y="530" as="targetPoint"/>
          </mxGeometry>
        </mxCell>
        <mxCell id="edge_error_end" value="" style="endArrow=classic;html=1;rounded=0;exitX=0.5;exitY=1;exitDx=0;exitDy=0;entryX=0.5;entryY=0;entryDx=0;entryDy=0;" edge="1" parent="1" source="error" target="end">
          <mxGeometry width="50" height="50" relative="1" as="geometry">
            <mxPoint x="0" y="600" as="sourcePoint"/>
            <mxPoint x="160" y="530" as="targetPoint"/>
          </mxGeometry>
        </mxCell>
      </root>
    </mxGraphModel>
  </diagram>
</mxfile>